<svg xmlns="http://www.w3.org/2000/svg" xmlns:xlink="http://www.w3.org/1999/xlink" width="498"
  zoomAndPan="magnify" viewBox="0 0 373.5 282.749996" height="377"
  preserveAspectRatio="xMidYMid meet" version="1.0">
  <defs>
    <g />
    <clipPath id="d35946bd85">
      <path d="M 105 18 L 268 18 L 268 173 L 105 173 Z M 105 18 " clip-rule="nonzero" />
    </clipPath>
    <clipPath id="3049251cf0">
      <path
        d="M 202.441406 219.328125 L 71.320312 124.558594 L 161.261719 0.117188 L 292.382812 94.882812 Z M 202.441406 219.328125 "
        clip-rule="nonzero" />
    </clipPath>
    <clipPath id="1050bdc084">
      <path
        d="M 202.441406 219.328125 L 71.320312 124.558594 L 161.261719 0.117188 L 292.382812 94.882812 Z M 202.441406 219.328125 "
        clip-rule="nonzero" />
    </clipPath>
  </defs>
  <g clip-path="url(#d35946bd85)">
    <g clip-path="url(#3049251cf0)">
      <g clip-path="url(#1050bdc084)">
        <path fill="#ffffff"
          d="M 205.800781 77.082031 L 167.5 77.195312 L 105.972656 77.230469 L 155.945312 113.347656 L 137.039062 172.035156 L 186.828125 135.671875 L 236.800781 171.789062 L 217.601562 113.195312 L 267.394531 76.828125 L 205.738281 76.984375 L 186.535156 18.390625 L 171.910156 63.785156 L 205.800781 77.082031 "
          fill-opacity="1" fill-rule="nonzero" />
      </g>
    </g>
  </g>
  <g fill="#ffffff" fill-opacity="1">
    <g transform="translate(31.249559, 242.553683)">
      <g>
        <path
          d="M 5.871094 0 L 16.984375 0 L 16.984375 -15.234375 L 24.320312 -15.234375 L 33.058594 0 L 45.917969 0 L 35.78125 -16.984375 C 41.652344 -19.570312 45.078125 -24.878906 45.078125 -32.078125 C 45.078125 -42.492188 37.949219 -48.921875 26.765625 -48.921875 L 5.871094 -48.921875 Z M 16.84375 -24.601562 L 16.84375 -39.417969 L 25.300781 -39.417969 C 30.75 -39.417969 33.828125 -36.761719 33.828125 -32.007812 C 33.828125 -27.257812 30.75 -24.601562 25.300781 -24.601562 Z M 16.84375 -24.601562 " />
      </g>
    </g>
  </g>
  <g fill="#ffffff" fill-opacity="1">
    <g transform="translate(85.756124, 242.553683)">
      <g>
        <path
          d="M 5.871094 0 L 38.789062 0 L 38.789062 -9.433594 L 16.914062 -9.433594 L 16.914062 -20.128906 L 36.132812 -20.128906 L 36.132812 -29.421875 L 16.914062 -29.421875 L 16.914062 -39.558594 L 38.019531 -39.558594 L 38.019531 -48.921875 L 5.871094 -48.921875 Z M 5.871094 0 " />
      </g>
    </g>
  </g>
  <g fill="#ffffff" fill-opacity="1">
    <g transform="translate(133.414545, 242.553683)">
      <g>
        <path
          d="M 19.429688 0 L 30.332031 0 L 49.132812 -48.921875 L 37.25 -48.921875 L 24.949219 -16.003906 L 19.078125 -31.519531 L 12.578125 -48.921875 L 0.628906 -48.921875 Z M 19.429688 0 " />
      </g>
    </g>
  </g>
  <g fill="#ffffff" fill-opacity="1">
    <g transform="translate(188.480132, 242.553683)">
      <g>
        <path
          d="M 25.859375 0.976562 C 38.578125 0.976562 46.335938 -6.988281 46.335938 -20.128906 L 46.335938 -48.921875 L 35.222656 -48.921875 L 35.222656 -20.898438 C 35.222656 -13.417969 32.078125 -9.574219 25.859375 -9.574219 C 19.640625 -9.574219 16.492188 -13.417969 16.492188 -20.898438 L 16.492188 -48.921875 L 5.382812 -48.921875 L 5.382812 -20.128906 C 5.382812 -6.988281 13.140625 0.976562 25.859375 0.976562 Z M 25.859375 0.976562 " />
      </g>
    </g>
  </g>
  <g fill="#ffffff" fill-opacity="1">
    <g transform="translate(245.502352, 242.553683)">
      <g />
    </g>
  </g>
  <g fill="#ffffff" fill-opacity="1">
    <g transform="translate(267.235662, 242.553683)">
      <g>
        <path
          d="M 5.871094 0 L 16.984375 0 L 16.984375 -48.921875 L 5.871094 -48.921875 Z M 5.871094 0 " />
      </g>
    </g>
  </g>
  <g fill="#ffffff" fill-opacity="1">
    <g transform="translate(295.397828, 242.553683)">
      <g>
        <path
          d="M 17.613281 0 L 28.722656 0 L 28.722656 -38.507812 L 44.238281 -38.507812 L 44.238281 -48.921875 L 2.097656 -48.921875 L 2.097656 -38.507812 L 17.613281 -38.507812 Z M 17.613281 0 " />
      </g>
    </g>
  </g>
</svg>